# xmcd CD database file
#
# Track frame offsets:
#	150
#	19707
#	39807
#	51828
#	71328
#
# Disc length: 1249 seconds
#
# Revision: 1
# Processed by: cddbd v1.5.2PL0 Copyright (c) Steve Scherf et al.
# Submitted via: CDex 1.51
#
DISCID=3304df05
DTITLE=Amman.Josh - Places EP
DYEAR=2010
DGENRE=New Age
TTITLE0=Lukka
TTITLE1=Ouachita
TTITLE2=Leawood
TTITLE3=Bayshore
TTITLE4=Melting The Frozen Sea Within Us
EXTD=YEAR: 2010
EXTT0=
EXTT1=
EXTT2=
EXTT3=
EXTT4=
PLAYORDER=
